<svg xmlns="http://www.w3.org/2000/svg" xmlns:xlink="http://www.w3.org/1999/xlink" width="1360" height="1760"><g transform="translate(0 0)"><path d="M80 640h80v80H80z" stroke="#1a4982" stroke-width="2" fill="#ffdf71"/><use xlink:href="#a" transform="matrix(1,0,0,1,85,645) translate(13.2716049382716 42.111111111111114)"/><path d="M240 640h80v80h-80z" stroke="#1a4982" stroke-width="2" fill="#a3d977"/><use xlink:href="#b" transform="matrix(1,0,0,1,245,645) translate(13.2716049382716 42.111111111111114)"/><path d="M160 680h79" stroke="#1a4982" stroke-width="2" fill="none"/><path d="M239 680l-14.27 4.64v-9.28z" fill="#1a4982"/><path d="M240 679.27v1.46L223.73 686v-12zm-14.27 4l10.03-3.27-10.03-3.26z" fill="#1a4982"/><path d="M400 240h80v80h-80z" stroke="#1a4982" stroke-width="2" fill="#ffdf71"/><use xlink:href="#a" transform="matrix(1,0,0,1,405,245) translate(13.2716049382716 42.111111111111114)"/><path d="M560 240h80v80h-80z" stroke="#1a4982" stroke-width="2" fill="#5abaa7"/><use xlink:href="#c" transform="matrix(1,0,0,1,565,245) translate(13.2716049382716 42.111111111111114)"/><path d="M480 280h79" stroke="#1a4982" stroke-width="2" fill="none"/><path d="M559 280l-14.27 4.64v-9.28z" fill="#1a4982"/><path d="M560 279.27v1.46L543.73 286v-12zm-14.27 4l10.03-3.27-10.03-3.26z" fill="#1a4982"/><path d="M400 360h80v80h-80z" stroke="#1a4982" stroke-width="2" fill="#ffdf71"/><use xlink:href="#a" transform="matrix(1,0,0,1,405,365) translate(13.2716049382716 42.111111111111114)"/><path d="M560 360h80v80h-80z" stroke="#1a4982" stroke-width="2" fill="#5abaa7"/><use xlink:href="#c" transform="matrix(1,0,0,1,565,365) translate(13.2716049382716 42.111111111111114)"/><path d="M480 400h79" stroke="#1a4982" stroke-width="2" fill="none"/><path d="M559 400l-14.27 4.64v-9.28z" fill="#1a4982"/><path d="M560 399.27v1.46L543.73 406v-12zm-14.27 4l10.03-3.27-10.03-3.26z" fill="#1a4982"/><path d="M400 520h80v80h-80z" stroke="#1a4982" stroke-width="2" fill="#ffdf71"/><use xlink:href="#a" transform="matrix(1,0,0,1,405,525) translate(13.2716049382716 42.111111111111114)"/><path d="M560 520h80v80h-80z" stroke="#1a4982" stroke-width="2" fill="#99d2f2"/><use xlink:href="#d" transform="matrix(1,0,0,1,565,525) translate(13.2716049382716 42.111111111111114)"/><path d="M480 560h79" stroke="#1a4982" stroke-width="2" fill="none"/><path d="M559 560l-14.27 4.64v-9.28z" fill="#1a4982"/><path d="M560 559.27v1.46L543.73 566v-12zm-14.27 4l10.03-3.27-10.03-3.26z" fill="#1a4982"/><path d="M400 640h80v80h-80z" stroke="#1a4982" stroke-width="2" fill="#ffdf71"/><use xlink:href="#a" transform="matrix(1,0,0,1,405,645) translate(13.2716049382716 42.111111111111114)"/><path d="M560 640h80v80h-80z" stroke="#1a4982" stroke-width="2" fill="#a3d977"/><use xlink:href="#b" transform="matrix(1,0,0,1,565,645) translate(13.2716049382716 42.111111111111114)"/><path d="M480 680h79" stroke="#1a4982" stroke-width="2" fill="none"/><path d="M559 680l-14.27 4.64v-9.28z" fill="#1a4982"/><path d="M560 679.27v1.46L543.73 686v-12zm-14.27 4l10.03-3.27-10.03-3.26z" fill="#1a4982"/><path d="M640 280h20v60H380v60h20" stroke="#1a4982" stroke-width="2" fill="none"/><path d="M400 400l-14.27 4.64v-9.28z" fill="#1a4982"/><path d="M400 398.95v2.1L384.73 406v-12zm-13.27 4.3l10.03-3.25-10.03-3.26z" fill="#1a4982"/><path d="M320 680h40V280h40" stroke="#1a4982" stroke-width="2" fill="none"/><path d="M400 280l-14.27 4.64v-9.28z" fill="#1a4982"/><path d="M400 278.95v2.1L384.73 286v-12zm-13.27 4.3l10.03-3.25-10.03-3.26z" fill="#1a4982"/><path d="M640 400h20v60H380v100h20" stroke="#1a4982" stroke-width="2" fill="none"/><path d="M400 560l-14.27 4.64v-9.28z" fill="#1a4982"/><path d="M400 558.95v2.1L384.73 566v-12zm-13.27 4.3l10.03-3.25-10.03-3.26z" fill="#1a4982"/><path d="M640 560h20v60H380v60h20" stroke="#1a4982" stroke-width="2" fill="none"/><path d="M400 680l-14.27 4.64v-9.28z" fill="#1a4982"/><path d="M400 678.95v2.1L384.73 686v-12zm-13.27 4.3l10.03-3.25-10.03-3.26z" fill="#1a4982"/><path d="M720 240h80v80h-80z" stroke="#1a4982" stroke-width="2" fill="#ffdf71"/><use xlink:href="#a" transform="matrix(1,0,0,1,725,245) translate(13.2716049382716 42.111111111111114)"/><path d="M880 240h80v80h-80z" stroke="#1a4982" stroke-width="2" fill="#5abaa7"/><use xlink:href="#c" transform="matrix(1,0,0,1,885,245) translate(13.2716049382716 42.111111111111114)"/><path d="M800 280h79" stroke="#1a4982" stroke-width="2" fill="none"/><path d="M879 280l-14.27 4.64v-9.28z" fill="#1a4982"/><path d="M880 279.27v1.46L863.73 286v-12zm-14.27 4l10.03-3.27-10.03-3.26z" fill="#1a4982"/><path d="M720 360h80v80h-80z" stroke="#1a4982" stroke-width="2" fill="#ffdf71"/><use xlink:href="#a" transform="matrix(1,0,0,1,725,365) translate(13.2716049382716 42.111111111111114)"/><path d="M880 360h80v80h-80z" stroke="#1a4982" stroke-width="2" fill="#5abaa7"/><use xlink:href="#c" transform="matrix(1,0,0,1,885,365) translate(13.2716049382716 42.111111111111114)"/><path d="M800 400h79" stroke="#1a4982" stroke-width="2" fill="none"/><path d="M879 400l-14.27 4.64v-9.28z" fill="#1a4982"/><path d="M880 399.27v1.46L863.73 406v-12zm-14.27 4l10.03-3.27-10.03-3.26z" fill="#1a4982"/><path d="M720 520h80v80h-80z" stroke="#1a4982" stroke-width="2" fill="#ffdf71"/><use xlink:href="#a" transform="matrix(1,0,0,1,725,525) translate(13.2716049382716 42.111111111111114)"/><path d="M880 520h80v80h-80z" stroke="#1a4982" stroke-width="2" fill="#99d2f2"/><use xlink:href="#d" transform="matrix(1,0,0,1,885,525) translate(13.2716049382716 42.111111111111114)"/><path d="M800 560h79" stroke="#1a4982" stroke-width="2" fill="none"/><path d="M879 560l-14.27 4.64v-9.28z" fill="#1a4982"/><path d="M880 559.27v1.46L863.73 566v-12zm-14.27 4l10.03-3.27-10.03-3.26z" fill="#1a4982"/><path d="M720 640h80v80h-80z" stroke="#1a4982" stroke-width="2" fill="#ffdf71"/><use xlink:href="#a" transform="matrix(1,0,0,1,725,645) translate(13.2716049382716 42.111111111111114)"/><path d="M880 640h80v80h-80z" stroke="#1a4982" stroke-width="2" fill="#a3d977"/><use xlink:href="#b" transform="matrix(1,0,0,1,885,645) translate(13.2716049382716 42.111111111111114)"/><path d="M800 680h79" stroke="#1a4982" stroke-width="2" fill="none"/><path d="M879 680l-14.27 4.64v-9.28z" fill="#1a4982"/><path d="M880 679.27v1.46L863.73 686v-12zm-14.27 4l10.03-3.27-10.03-3.26z" fill="#1a4982"/><path d="M960 280h20v60H700v60h20" stroke="#1a4982" stroke-width="2" fill="none"/><path d="M720 400l-14.27 4.64v-9.28z" fill="#1a4982"/><path d="M720 398.95v2.1L704.73 406v-12zm-13.27 4.3l10.03-3.25-10.03-3.26z" fill="#1a4982"/><path d="M960 400h20v60H700v100h20" stroke="#1a4982" stroke-width="2" fill="none"/><path d="M720 560l-14.27 4.64v-9.28z" fill="#1a4982"/><path d="M720 558.95v2.1L704.73 566v-12zm-13.27 4.3l10.03-3.25-10.03-3.26z" fill="#1a4982"/><path d="M960 560h20v60H700v60h20" stroke="#1a4982" stroke-width="2" fill="none"/><path d="M720 680l-14.27 4.64v-9.28z" fill="#1a4982"/><path d="M720 678.95v2.1L704.73 686v-12zm-13.27 4.3l10.03-3.25-10.03-3.26z" fill="#1a4982"/><path d="M1040 240h80v80h-80z" stroke="#1a4982" stroke-width="2" fill="#ffdf71"/><use xlink:href="#a" transform="matrix(1,0,0,1,1045,245) translate(13.2716049382716 42.111111111111114)"/><path d="M1200 240h80v80h-80z" stroke="#1a4982" stroke-width="2" fill="#5abaa7"/><use xlink:href="#c" transform="matrix(1,0,0,1,1205,245) translate(13.2716049382716 42.111111111111114)"/><path d="M1120 280h79" stroke="#1a4982" stroke-width="2" fill="none"/><path d="M1199 280l-14.27 4.64v-9.28z" fill="#1a4982"/><path d="M1200 279.27v1.46l-16.27 5.28v-12zm-14.27 4l10.03-3.27-10.03-3.26z" fill="#1a4982"/><path d="M1040 360h80v80h-80z" stroke="#1a4982" stroke-width="2" fill="#ffdf71"/><use xlink:href="#a" transform="matrix(1,0,0,1,1045,365) translate(13.2716049382716 42.111111111111114)"/><path d="M1200 360h80v80h-80z" stroke="#1a4982" stroke-width="2" fill="#5abaa7"/><use xlink:href="#c" transform="matrix(1,0,0,1,1205,365) translate(13.2716049382716 42.111111111111114)"/><path d="M1120 400h79" stroke="#1a4982" stroke-width="2" fill="none"/><path d="M1199 400l-14.27 4.64v-9.28z" fill="#1a4982"/><path d="M1200 399.27v1.46l-16.27 5.28v-12zm-14.27 4l10.03-3.27-10.03-3.26z" fill="#1a4982"/><path d="M1040 520h80v80h-80z" stroke="#1a4982" stroke-width="2" fill="#ffdf71"/><use xlink:href="#a" transform="matrix(1,0,0,1,1045,525) translate(13.2716049382716 42.111111111111114)"/><path d="M1200 520h80v80h-80z" stroke="#1a4982" stroke-width="2" fill="#99d2f2"/><use xlink:href="#d" transform="matrix(1,0,0,1,1205,525) translate(13.2716049382716 42.111111111111114)"/><path d="M1120 560h79" stroke="#1a4982" stroke-width="2" fill="none"/><path d="M1199 560l-14.27 4.64v-9.28z" fill="#1a4982"/><path d="M1200 559.27v1.46l-16.27 5.28v-12zm-14.27 4l10.03-3.27-10.03-3.26z" fill="#1a4982"/><path d="M1040 640h80v80h-80z" stroke="#1a4982" stroke-width="2" fill="#ffdf71"/><use xlink:href="#a" transform="matrix(1,0,0,1,1045,645) translate(13.2716049382716 42.111111111111114)"/><path d="M1200 640h80v80h-80z" stroke="#1a4982" stroke-width="2" fill="#a3d977"/><use xlink:href="#b" transform="matrix(1,0,0,1,1205,645) translate(13.2716049382716 42.111111111111114)"/><path d="M1120 680h79" stroke="#1a4982" stroke-width="2" fill="none"/><path d="M1199 680l-14.27 4.64v-9.28z" fill="#1a4982"/><path d="M1200 679.27v1.46l-16.27 5.28v-12zm-14.27 4l10.03-3.27-10.03-3.26z" fill="#1a4982"/><path d="M1280 280h20v60h-280v60h20" stroke="#1a4982" stroke-width="2" fill="none"/><path d="M1040 400l-14.27 4.64v-9.28z" fill="#1a4982"/><path d="M1040 398.95v2.1l-15.27 4.96v-12zm-13.27 4.3l10.03-3.25-10.03-3.26z" fill="#1a4982"/><path d="M1280 400h20v60h-280v100h20" stroke="#1a4982" stroke-width="2" fill="none"/><path d="M1040 560l-14.27 4.64v-9.28z" fill="#1a4982"/><path d="M1040 558.95v2.1l-15.27 4.96v-12zm-13.27 4.3l10.03-3.25-10.03-3.26z" fill="#1a4982"/><path d="M1280 560h20v60h-280v60h20" stroke="#1a4982" stroke-width="2" fill="none"/><path d="M1040 680l-14.27 4.64v-9.28z" fill="#1a4982"/><path d="M1040 678.95v2.1l-15.27 4.96v-12zm-13.27 4.3l10.03-3.25-10.03-3.26z" fill="#1a4982"/><path d="M640 680h40V280h40" stroke="#1a4982" stroke-width="2" fill="none"/><path d="M720 280l-14.27 4.64v-9.28z" fill="#1a4982"/><path d="M720 278.95v2.1L704.73 286v-12zm-13.27 4.3l10.03-3.25-10.03-3.26z" fill="#1a4982"/><path d="M960 680h40V280h40" stroke="#1a4982" stroke-width="2" fill="none"/><path d="M1040 280l-14.27 4.64v-9.28z" fill="#1a4982"/><path d="M1040 278.95v2.1l-15.27 4.96v-12zm-13.27 4.3l10.03-3.25-10.03-3.26z" fill="#1a4982"/><defs><path d="M205 0l-28-72H64L36 0H1l101-248h38L239 0h-34zm-38-99l-47-123c-12 45-31 82-46 123h93" id="e"/><path d="M27 0v-27h64v-190l-56 39v-29l58-41h29v221h61V0H27" id="f"/><g id="a"><use transform="matrix(0.09876543209876544,0,0,0.09876543209876544,0,0)" xlink:href="#e"/><use transform="matrix(0.09876543209876544,0,0,0.09876543209876544,23.703703703703706,0)" xlink:href="#f"/></g><path d="M160-131c35 5 61 23 61 61C221 17 115-2 30 0v-248c76 3 177-17 177 60 0 33-19 50-47 57zm-97-11c50-1 110 9 110-42 0-47-63-36-110-37v79zm0 115c55-2 124 14 124-45 0-56-70-42-124-44v89" id="g"/><g id="b"><use transform="matrix(0.09876543209876544,0,0,0.09876543209876544,0,0)" xlink:href="#g"/><use transform="matrix(0.09876543209876544,0,0,0.09876543209876544,23.703703703703706,0)" xlink:href="#f"/></g><path d="M101-251c82-7 93 87 43 132L82-64C71-53 59-42 53-27h129V0H18c2-99 128-94 128-182 0-28-16-43-45-43s-46 15-49 41l-32-3c6-41 34-60 81-64" id="h"/><g id="c"><use transform="matrix(0.09876543209876544,0,0,0.09876543209876544,0,0)" xlink:href="#g"/><use transform="matrix(0.09876543209876544,0,0,0.09876543209876544,23.703703703703706,0)" xlink:href="#h"/></g><path d="M126-127c33 6 58 20 58 59 0 88-139 92-164 29-3-8-5-16-6-25l32-3c6 27 21 44 54 44 32 0 52-15 52-46 0-38-36-46-79-43v-28c39 1 72-4 72-42 0-27-17-43-46-43-28 0-47 15-49 41l-32-3c6-42 35-63 81-64 48-1 79 21 79 65 0 36-21 52-52 59" id="i"/><g id="d"><use transform="matrix(0.09876543209876544,0,0,0.09876543209876544,0,0)" xlink:href="#g"/><use transform="matrix(0.09876543209876544,0,0,0.09876543209876544,23.703703703703706,0)" xlink:href="#i"/></g></defs></g></svg>