<svg xmlns="http://www.w3.org/2000/svg" xmlns:xlink="http://www.w3.org/1999/xlink" width="1805" height="648"><g transform="translate(-26 -125)"><path d="M60.5 166h400v580h-400z" stroke="#1a4982" stroke-width="2" fill="#ccc"/><use xlink:href="#a" transform="matrix(1,0,0,1,65.49999999999977,171) translate(195 290.4)"/><path d="M510.3 165.54h400v580h-400z" stroke="#1a4982" stroke-width="2" fill="#ccc"/><use xlink:href="#a" transform="matrix(1,0,0,1,515.2999999999998,170.53736146788742) translate(195 290.4)"/><path d="M870.3 305.54h20v150h-360v150h20" stroke="#1a4982" stroke-width="2" fill="none"/><path d="M550.3 605.54l-14.27 4.63v-9.27z" fill="#1a4982"/><path d="M550.3 604.5v2.1l-15.27 4.95v-12.02zm-13.27 4.3l10.03-3.26-10.03-3.26z" fill="#1a4982"/><path d="M550.3 485.54h320v240h-320z" stroke="#1a4982" stroke-width="2" fill="#eee"/><use xlink:href="#a" transform="matrix(1,0,0,1,555.2999999999998,490.5373614678874) translate(155 120.4)"/><path d="M590.3 505.54h80v80h-80z" stroke="#1a4982" stroke-width="2" fill="#ffdf71"/><use xlink:href="#b" transform="matrix(1,0,0,1,595.2999999999998,510.5373614678874) translate(13.2716049382716 42.111111111111114)"/><path d="M750.3 505.54h80v80h-80z" stroke="#1a4982" stroke-width="2" fill="#99d2f2"/><use xlink:href="#c" transform="matrix(1,0,0,1,755.2999999999998,510.5373614678874) translate(13.2716049382716 42.111111111111114)"/><path d="M670.3 545.54h79" stroke="#1a4982" stroke-width="2" fill="none"/><path d="M749.3 545.54l-14.27 4.63v-9.27z" fill="#1a4982"/><path d="M750.3 544.8v1.46l-16.27 5.3v-12.03zm-14.27 4l10.03-3.26-10.03-3.26z" fill="#1a4982"/><path d="M590.3 625.54h80v80h-80z" stroke="#1a4982" stroke-width="2" fill="#ffdf71"/><use xlink:href="#b" transform="matrix(1,0,0,1,595.2999999999998,630.5373614678874) translate(13.2716049382716 42.111111111111114)"/><path d="M750.3 625.54h80v80h-80z" stroke="#1a4982" stroke-width="2" fill="#a3d977"/><use xlink:href="#d" transform="matrix(1,0,0,1,755.2999999999998,630.5373614678874) translate(13.2716049382716 42.111111111111114)"/><path d="M670.3 665.54h79" stroke="#1a4982" stroke-width="2" fill="none"/><path d="M749.3 665.54l-14.27 4.63v-9.27z" fill="#1a4982"/><path d="M750.3 664.8v1.46l-16.27 5.3v-12.03zm-14.27 4l10.03-3.26-10.03-3.26z" fill="#1a4982"/><path d="M830.3 545.54h20v60h-280v60h20" stroke="#1a4982" stroke-width="2" fill="none"/><path d="M590.3 665.54l-14.27 4.63v-9.27z" fill="#1a4982"/><path d="M590.3 664.5v2.1l-15.27 4.95v-12.02zm-13.27 4.3l10.03-3.26-10.03-3.26z" fill="#1a4982"/><path d="M100.5 605.54h320v120h-320z" stroke="#1a4982" stroke-width="2" fill="#eee"/><use xlink:href="#a" transform="matrix(1,0,0,1,105.49999999999977,610.5373614678874) translate(155 60.4)"/><path d="M140.5 625.54h80v80h-80z" stroke="#1a4982" stroke-width="2" fill="#ffdf71"/><use xlink:href="#b" transform="matrix(1,0,0,1,145.49999999999977,630.5373614678874) translate(13.2716049382716 42.111111111111114)"/><path d="M300.5 625.54h80v80h-80z" stroke="#1a4982" stroke-width="2" fill="#a3d977"/><use xlink:href="#d" transform="matrix(1,0,0,1,305.4999999999998,630.5373614678874) translate(13.2716049382716 42.111111111111114)"/><path d="M220.5 665.54h79" stroke="#1a4982" stroke-width="2" fill="none"/><path d="M299.5 665.54l-14.27 4.63v-9.27z" fill="#1a4982"/><path d="M300.5 664.8v1.46l-16.27 5.3v-12.03zm-14.27 4l10.03-3.26-10.03-3.26z" fill="#1a4982"/><path d="M460.5 456h24.4v-.46h24.4" stroke="#1a4982" stroke-width="2" fill="none"/><path d="M509.3 455.54l-14.27 4.63v-9.27z" fill="#1a4982"/><path d="M510.3 454.8v1.46l-16.27 5.3v-12.03zm-14.27 4l10.03-3.26-10.03-3.26z" fill="#1a4982"/><path d="M960.1 166h400v580h-400z" stroke="#1a4982" stroke-width="2" fill="#ccc"/><use xlink:href="#a" transform="matrix(1,0,0,1,965.0999999999999,171) translate(195 290.4)"/><path d="M1320.1 306h20v154.46h-360V606h20" stroke="#1a4982" stroke-width="2" fill="none"/><path d="M1000.1 606l-14.27 4.64v-9.28z" fill="#1a4982"/><path d="M1000.1 604.95v2.1L984.83 612v-12zm-13.27 4.3l10.03-3.25-10.03-3.26z" fill="#1a4982"/><path d="M1000.1 486h320v240h-320z" stroke="#1a4982" stroke-width="2" fill="#eee"/><use xlink:href="#a" transform="matrix(1,0,0,1,1005.0999999999998,491) translate(155 120.4)"/><path d="M1040.1 506h80v80h-80z" stroke="#1a4982" stroke-width="2" fill="#ffdf71"/><use xlink:href="#b" transform="matrix(1,0,0,1,1045.1,511) translate(13.2716049382716 42.111111111111114)"/><path d="M1200.1 506h80v80h-80z" stroke="#1a4982" stroke-width="2" fill="#99d2f2"/><use xlink:href="#c" transform="matrix(1,0,0,1,1205.1,511) translate(13.2716049382716 42.111111111111114)"/><path d="M1120.1 546h79" stroke="#1a4982" stroke-width="2" fill="none"/><path d="M1199.1 546l-14.27 4.64v-9.28z" fill="#1a4982"/><path d="M1200.1 545.27v1.46l-16.27 5.28v-12zm-14.27 4l10.03-3.27-10.03-3.26z" fill="#1a4982"/><path d="M1040.1 626h80v80h-80z" stroke="#1a4982" stroke-width="2" fill="#ffdf71"/><use xlink:href="#b" transform="matrix(1,0,0,1,1045.1,631) translate(13.2716049382716 42.111111111111114)"/><path d="M1200.1 626h80v80h-80z" stroke="#1a4982" stroke-width="2" fill="#a3d977"/><use xlink:href="#d" transform="matrix(1,0,0,1,1205.1,631) translate(13.2716049382716 42.111111111111114)"/><path d="M1120.1 666h79" stroke="#1a4982" stroke-width="2" fill="none"/><path d="M1199.1 666l-14.27 4.64v-9.28z" fill="#1a4982"/><path d="M1200.1 665.27v1.46l-16.27 5.28v-12zm-14.27 4l10.03-3.27-10.03-3.26z" fill="#1a4982"/><path d="M1280.1 546h20v60h-280v60h20" stroke="#1a4982" stroke-width="2" fill="none"/><path d="M1040.1 666l-14.27 4.64v-9.28z" fill="#1a4982"/><path d="M1040.1 664.95v2.1l-15.27 4.96v-12zm-13.27 4.3l10.03-3.25-10.03-3.26z" fill="#1a4982"/><path d="M910.3 455.54h24.4v.46h24.4" stroke="#1a4982" stroke-width="2" fill="none"/><path d="M959.1 456l-14.27 4.64v-9.28z" fill="#1a4982"/><path d="M960.1 455.27v1.46L943.83 462v-12zm-14.27 4l10.03-3.27-10.03-3.26z" fill="#1a4982"/><path d="M1409.9 166h400v580h-400z" stroke="#1a4982" stroke-width="2" fill="#ccc"/><use xlink:href="#a" transform="matrix(1,0,0,1,1414.9,171) translate(195 290.4)"/><path d="M1360.1 456h48.8" stroke="#1a4982" stroke-width="2" fill="none"/><path d="M1408.9 456l-14.27 4.64v-9.28z" fill="#1a4982"/><path d="M1409.9 455.27v1.46l-16.27 5.28v-12zm-14.27 4l10.03-3.27-10.03-3.26z" fill="#1a4982"/><path d="M550.3 185.54h320v240h-320z" stroke="#1a4982" stroke-width="2" fill="#eee"/><use xlink:href="#a" transform="matrix(1,0,0,1,555.2999999999998,190.53736146788742) translate(155 120.4)"/><path d="M590.3 205.54h80v80h-80z" stroke="#1a4982" stroke-width="2" fill="#ffdf71"/><use xlink:href="#e" transform="matrix(1,0,0,1,595.2999999999998,210.53736146788742) translate(13.2716049382716 42.111111111111114)"/><path d="M750.3 205.54h80v80h-80z" stroke="#1a4982" stroke-width="2" fill="#5abaa7"/><use xlink:href="#f" transform="matrix(1,0,0,1,755.2999999999998,210.53736146788742) translate(13.2716049382716 42.111111111111114)"/><path d="M670.3 245.54h79" stroke="#1a4982" stroke-width="2" fill="none"/><path d="M749.3 245.54l-14.27 4.63v-9.27z" fill="#1a4982"/><path d="M750.3 244.8v1.46l-16.27 5.3v-12.03zm-14.27 4l10.03-3.26-10.03-3.26z" fill="#1a4982"/><path d="M590.3 325.54h80v80h-80z" stroke="#1a4982" stroke-width="2" fill="#ffdf71"/><use xlink:href="#e" transform="matrix(1,0,0,1,595.2999999999998,330.5373614678874) translate(13.2716049382716 42.111111111111114)"/><path d="M750.3 325.54h80v80h-80z" stroke="#1a4982" stroke-width="2" fill="#5abaa7"/><use xlink:href="#f" transform="matrix(1,0,0,1,755.2999999999998,330.5373614678874) translate(13.2716049382716 42.111111111111114)"/><path d="M670.3 365.54h79" stroke="#1a4982" stroke-width="2" fill="none"/><path d="M749.3 365.54l-14.27 4.63v-9.27z" fill="#1a4982"/><path d="M750.3 364.8v1.46l-16.27 5.3v-12.03zm-14.27 4l10.03-3.26-10.03-3.26z" fill="#1a4982"/><path d="M830.3 245.54h20v60h-280v60h20" stroke="#1a4982" stroke-width="2" fill="none"/><path d="M590.3 365.54l-14.27 4.63v-9.27z" fill="#1a4982"/><path d="M590.3 364.5v2.1l-15.27 4.95v-12.02zm-13.27 4.3l10.03-3.26-10.03-3.26z" fill="#1a4982"/><path d="M1000.1 186h320v240h-320z" stroke="#1a4982" stroke-width="2" fill="#eee"/><use xlink:href="#a" transform="matrix(1,0,0,1,1005.0999999999998,191) translate(155 120.4)"/><path d="M1040.1 206h80v80h-80z" stroke="#1a4982" stroke-width="2" fill="#ffdf71"/><use xlink:href="#b" transform="matrix(1,0,0,1,1045.1,211) translate(13.2716049382716 42.111111111111114)"/><path d="M1200.1 206h80v80h-80z" stroke="#1a4982" stroke-width="2" fill="#5abaa7"/><use xlink:href="#g" transform="matrix(1,0,0,1,1205.1,211) translate(13.2716049382716 42.111111111111114)"/><path d="M1120.1 246h79" stroke="#1a4982" stroke-width="2" fill="none"/><path d="M1199.1 246l-14.27 4.64v-9.28z" fill="#1a4982"/><path d="M1200.1 245.27v1.46l-16.27 5.28v-12zm-14.27 4l10.03-3.27-10.03-3.26z" fill="#1a4982"/><path d="M1040.1 326h80v80h-80z" stroke="#1a4982" stroke-width="2" fill="#ffdf71"/><use xlink:href="#b" transform="matrix(1,0,0,1,1045.1,331) translate(13.2716049382716 42.111111111111114)"/><path d="M1200.1 326h80v80h-80z" stroke="#1a4982" stroke-width="2" fill="#5abaa7"/><use xlink:href="#g" transform="matrix(1,0,0,1,1205.1,331) translate(13.2716049382716 42.111111111111114)"/><path d="M1120.1 366h79" stroke="#1a4982" stroke-width="2" fill="none"/><path d="M1199.1 366l-14.27 4.64v-9.28z" fill="#1a4982"/><path d="M1200.1 365.27v1.46l-16.27 5.28v-12zm-14.27 4l10.03-3.27-10.03-3.26z" fill="#1a4982"/><path d="M1280.1 246h20v60h-280v60h20" stroke="#1a4982" stroke-width="2" fill="none"/><path d="M1040.1 366l-14.27 4.64v-9.28z" fill="#1a4982"/><path d="M1040.1 364.95v2.1l-15.27 4.96v-12zm-13.27 4.3l10.03-3.25-10.03-3.26z" fill="#1a4982"/><defs><path d="M205 0l-28-72H64L36 0H1l101-248h38L239 0h-34zm-38-99l-47-123c-12 45-31 82-46 123h93" id="h"/><path d="M27 0v-27h64v-190l-56 39v-29l58-41h29v221h61V0H27" id="i"/><g id="b"><use transform="matrix(0.09876543209876544,0,0,0.09876543209876544,0,0)" xlink:href="#h"/><use transform="matrix(0.09876543209876544,0,0,0.09876543209876544,23.703703703703706,0)" xlink:href="#i"/></g><path d="M160-131c35 5 61 23 61 61C221 17 115-2 30 0v-248c76 3 177-17 177 60 0 33-19 50-47 57zm-97-11c50-1 110 9 110-42 0-47-63-36-110-37v79zm0 115c55-2 124 14 124-45 0-56-70-42-124-44v89" id="j"/><path d="M126-127c33 6 58 20 58 59 0 88-139 92-164 29-3-8-5-16-6-25l32-3c6 27 21 44 54 44 32 0 52-15 52-46 0-38-36-46-79-43v-28c39 1 72-4 72-42 0-27-17-43-46-43-28 0-47 15-49 41l-32-3c6-42 35-63 81-64 48-1 79 21 79 65 0 36-21 52-52 59" id="k"/><g id="c"><use transform="matrix(0.09876543209876544,0,0,0.09876543209876544,0,0)" xlink:href="#j"/><use transform="matrix(0.09876543209876544,0,0,0.09876543209876544,23.703703703703706,0)" xlink:href="#k"/></g><g id="d"><use transform="matrix(0.09876543209876544,0,0,0.09876543209876544,0,0)" xlink:href="#j"/><use transform="matrix(0.09876543209876544,0,0,0.09876543209876544,23.703703703703706,0)" xlink:href="#i"/></g><g id="e"><use transform="matrix(0.09876543209876544,0,0,0.09876543209876544,0,0)" xlink:href="#h"/><use transform="matrix(0.09876543209876544,0,0,0.09876543209876544,23.703703703703706,0)" xlink:href="#i"/></g><path d="M101-251c82-7 93 87 43 132L82-64C71-53 59-42 53-27h129V0H18c2-99 128-94 128-182 0-28-16-43-45-43s-46 15-49 41l-32-3c6-41 34-60 81-64" id="l"/><g id="f"><use transform="matrix(0.09876543209876544,0,0,0.09876543209876544,0,0)" xlink:href="#j"/><use transform="matrix(0.09876543209876544,0,0,0.09876543209876544,23.703703703703706,0)" xlink:href="#l"/></g><g id="g"><use transform="matrix(0.09876543209876544,0,0,0.09876543209876544,0,0)" xlink:href="#j"/><use transform="matrix(0.09876543209876544,0,0,0.09876543209876544,23.703703703703706,0)" xlink:href="#l"/></g></defs></g></svg>